<mxfile host="www.draw.io" modified="2019-12-13T09:34:37.390Z" agent="Mozilla/5.0 (Windows NT 10.0; Win64; x64) AppleWebKit/537.36 (KHTML, like Gecko) Chrome/78.0.3904.108 Safari/537.36 OPR/65.0.3467.62" etag="l_gZz2-kicE4m24qw53W" version="12.4.1" type="github" pages="1">
  <diagram id="adMyBay1lu6xidjCouD3" name="Model">
    <mxGraphModel dx="3702" dy="1736" grid="1" gridSize="10" guides="1" tooltips="1" connect="1" arrows="1" fold="1" page="1" pageScale="1" pageWidth="850" pageHeight="1100" math="0" shadow="0">
      <root>
        <mxCell id="0"/>
        <mxCell id="1" parent="0"/>
        <mxCell id="sXvjfolYUnGrp_yOVfev-73" value="Bibliothek" style="shape=folder;fontStyle=1;spacingTop=10;tabWidth=181;tabHeight=38;tabPosition=left;html=1;strokeColor=#000000;strokeWidth=1;fontSize=12;" parent="1" vertex="1">
          <mxGeometry x="-2360" y="-41" width="1400" height="1411" as="geometry"/>
        </mxCell>
        <mxCell id="gOupwa7_WCO_5UHda2sZ-10" value="hasService" style="endArrow=open;endSize=12;dashed=1;html=1;" parent="1" source="sXvjfolYUnGrp_yOVfev-64" target="4jUEhYQWBBL92VZrlt_O-1" edge="1">
          <mxGeometry width="160" relative="1" as="geometry">
            <mxPoint x="-559.7697368421054" y="126" as="sourcePoint"/>
            <mxPoint x="-800" y="235" as="targetPoint"/>
          </mxGeometry>
        </mxCell>
        <mxCell id="w5dEuc_NeuzI3938pT3K-1" value="" style="shape=folder;fontStyle=1;spacingTop=10;tabWidth=146;tabHeight=31;tabPosition=left;html=1;" parent="1" vertex="1">
          <mxGeometry x="-190" width="1730" height="1380" as="geometry"/>
        </mxCell>
        <mxCell id="1QQ3cwLplbujhVV3ZzxS-45" value="&lt;p style=&quot;margin: 0px ; margin-top: 4px ; text-align: center&quot;&gt;&lt;i&gt;{abstract}&lt;/i&gt;&lt;br&gt;&lt;b&gt;Activity&lt;/b&gt;&lt;/p&gt;&lt;hr size=&quot;1&quot;&gt;&lt;p style=&quot;margin: 0px ; margin-left: 4px&quot;&gt;&lt;span&gt;+ activityDone : EventHandler&amp;lt;ActivityArgs&amp;gt;&lt;/span&gt;&lt;br&gt;&lt;/p&gt;&lt;p style=&quot;margin: 0px ; margin-left: 4px&quot;&gt;&lt;br&gt;&lt;/p&gt;&lt;p style=&quot;margin: 0px ; margin-left: 4px&quot;&gt;&lt;br&gt;&lt;/p&gt;&lt;p style=&quot;margin: 0px ; margin-left: 4px&quot;&gt;&lt;span&gt;+ buffer : ArrayList&amp;lt;DataBuffer&amp;gt;&amp;nbsp;&lt;/span&gt;&lt;/p&gt;&lt;p style=&quot;margin: 0px ; margin-left: 4px&quot;&gt;&lt;span&gt;&lt;br&gt;&lt;/span&gt;&lt;/p&gt;&lt;p style=&quot;margin: 0px ; margin-left: 4px&quot;&gt;&lt;br&gt;&lt;/p&gt;&lt;p style=&quot;margin: 0px ; margin-left: 4px&quot;&gt;+ onDataUpdate(data : DataEventArgs)&lt;br&gt;&lt;/p&gt;&lt;p style=&quot;margin: 0px ; margin-left: 4px&quot;&gt;&lt;br&gt;&lt;/p&gt;&lt;p style=&quot;margin: 0px ; margin-left: 4px&quot;&gt;- init() : void&lt;/p&gt;&lt;p style=&quot;margin: 0px ; margin-left: 4px&quot;&gt;&lt;span&gt;+ startActivity() : bool&lt;/span&gt;&lt;/p&gt;&lt;p style=&quot;margin: 0px ; margin-left: 4px&quot;&gt;&lt;span&gt;+ stopActivity() : bool&lt;/span&gt;&lt;/p&gt;&lt;p style=&quot;margin: 0px ; margin-left: 4px&quot;&gt;+ analyse() : void {async}&lt;span&gt;&lt;br&gt;&lt;/span&gt;&lt;/p&gt;&lt;p style=&quot;margin: 0px ; margin-left: 4px&quot;&gt;&lt;br&gt;&lt;/p&gt;" style="verticalAlign=top;align=left;overflow=fill;fontSize=12;fontFamily=Helvetica;html=1;" parent="1" vertex="1">
          <mxGeometry x="47" y="608.5" width="408" height="250" as="geometry"/>
        </mxCell>
        <mxCell id="1QQ3cwLplbujhVV3ZzxS-46" value="PushUpActivityThreshold" style="swimlane;fontStyle=1;align=center;verticalAlign=top;childLayout=stackLayout;horizontal=1;startSize=26;horizontalStack=0;resizeParent=1;resizeParentMax=0;resizeLast=0;collapsible=1;marginBottom=0;" parent="1" vertex="1">
          <mxGeometry x="474.5" y="1099.5" width="160" height="86" as="geometry"/>
        </mxCell>
        <mxCell id="1QQ3cwLplbujhVV3ZzxS-48" value="" style="line;strokeWidth=1;fillColor=none;align=left;verticalAlign=middle;spacingTop=-1;spacingLeft=3;spacingRight=3;rotatable=0;labelPosition=right;points=[];portConstraint=eastwest;" parent="1QQ3cwLplbujhVV3ZzxS-46" vertex="1">
          <mxGeometry y="26" width="160" height="8" as="geometry"/>
        </mxCell>
        <mxCell id="1QQ3cwLplbujhVV3ZzxS-112" value="+ StepActivity()" style="text;strokeColor=none;fillColor=none;align=left;verticalAlign=top;spacingLeft=4;spacingRight=4;overflow=hidden;rotatable=0;points=[[0,0.5],[1,0.5]];portConstraint=eastwest;" parent="1QQ3cwLplbujhVV3ZzxS-46" vertex="1">
          <mxGeometry y="34" width="160" height="26" as="geometry"/>
        </mxCell>
        <mxCell id="1QQ3cwLplbujhVV3ZzxS-114" value="+ analyse() : void" style="text;strokeColor=none;fillColor=none;align=left;verticalAlign=top;spacingLeft=4;spacingRight=4;overflow=hidden;rotatable=0;points=[[0,0.5],[1,0.5]];portConstraint=eastwest;" parent="1QQ3cwLplbujhVV3ZzxS-46" vertex="1">
          <mxGeometry y="60" width="160" height="26" as="geometry"/>
        </mxCell>
        <mxCell id="1QQ3cwLplbujhVV3ZzxS-94" value="RunningActivityThreshold" style="swimlane;fontStyle=1;align=center;verticalAlign=top;childLayout=stackLayout;horizontal=1;startSize=26;horizontalStack=0;resizeParent=1;resizeParentMax=0;resizeLast=0;collapsible=1;marginBottom=0;" parent="1" vertex="1">
          <mxGeometry x="272" y="1098.5" width="160" height="86" as="geometry"/>
        </mxCell>
        <mxCell id="1QQ3cwLplbujhVV3ZzxS-96" value="" style="line;strokeWidth=1;fillColor=none;align=left;verticalAlign=middle;spacingTop=-1;spacingLeft=3;spacingRight=3;rotatable=0;labelPosition=right;points=[];portConstraint=eastwest;" parent="1QQ3cwLplbujhVV3ZzxS-94" vertex="1">
          <mxGeometry y="26" width="160" height="8" as="geometry"/>
        </mxCell>
        <mxCell id="1QQ3cwLplbujhVV3ZzxS-97" value="+ RunningActivity()" style="text;strokeColor=none;fillColor=none;align=left;verticalAlign=top;spacingLeft=4;spacingRight=4;overflow=hidden;rotatable=0;points=[[0,0.5],[1,0.5]];portConstraint=eastwest;" parent="1QQ3cwLplbujhVV3ZzxS-94" vertex="1">
          <mxGeometry y="34" width="160" height="26" as="geometry"/>
        </mxCell>
        <mxCell id="1QQ3cwLplbujhVV3ZzxS-113" value="+ analyse() : void" style="text;strokeColor=none;fillColor=none;align=left;verticalAlign=top;spacingLeft=4;spacingRight=4;overflow=hidden;rotatable=0;points=[[0,0.5],[1,0.5]];portConstraint=eastwest;" parent="1QQ3cwLplbujhVV3ZzxS-94" vertex="1">
          <mxGeometry y="60" width="160" height="26" as="geometry"/>
        </mxCell>
        <mxCell id="1QQ3cwLplbujhVV3ZzxS-102" value="SitUpActivityThreshold" style="swimlane;fontStyle=1;align=center;verticalAlign=top;childLayout=stackLayout;horizontal=1;startSize=27;horizontalStack=0;resizeParent=1;resizeParentMax=0;resizeLast=0;collapsible=1;marginBottom=0;" parent="1" vertex="1">
          <mxGeometry x="-145.5" y="1098.5" width="160" height="87" as="geometry"/>
        </mxCell>
        <mxCell id="1QQ3cwLplbujhVV3ZzxS-104" value="" style="line;strokeWidth=1;fillColor=none;align=left;verticalAlign=middle;spacingTop=-1;spacingLeft=3;spacingRight=3;rotatable=0;labelPosition=right;points=[];portConstraint=eastwest;" parent="1QQ3cwLplbujhVV3ZzxS-102" vertex="1">
          <mxGeometry y="27" width="160" height="8" as="geometry"/>
        </mxCell>
        <mxCell id="1QQ3cwLplbujhVV3ZzxS-105" value="+ SitUpActivity()" style="text;strokeColor=none;fillColor=none;align=left;verticalAlign=top;spacingLeft=4;spacingRight=4;overflow=hidden;rotatable=0;points=[[0,0.5],[1,0.5]];portConstraint=eastwest;" parent="1QQ3cwLplbujhVV3ZzxS-102" vertex="1">
          <mxGeometry y="35" width="160" height="26" as="geometry"/>
        </mxCell>
        <mxCell id="1QQ3cwLplbujhVV3ZzxS-116" value="+ analyse() : void" style="text;strokeColor=none;fillColor=none;align=left;verticalAlign=top;spacingLeft=4;spacingRight=4;overflow=hidden;rotatable=0;points=[[0,0.5],[1,0.5]];portConstraint=eastwest;" parent="1QQ3cwLplbujhVV3ZzxS-102" vertex="1">
          <mxGeometry y="61" width="160" height="26" as="geometry"/>
        </mxCell>
        <mxCell id="1QQ3cwLplbujhVV3ZzxS-98" value="StepActivityThreshold" style="swimlane;fontStyle=1;align=center;verticalAlign=top;childLayout=stackLayout;horizontal=1;startSize=26;horizontalStack=0;resizeParent=1;resizeParentMax=0;resizeLast=0;collapsible=1;marginBottom=0;" parent="1" vertex="1">
          <mxGeometry x="63.5" y="1098.5" width="160" height="86" as="geometry"/>
        </mxCell>
        <mxCell id="1QQ3cwLplbujhVV3ZzxS-100" value="" style="line;strokeWidth=1;fillColor=none;align=left;verticalAlign=middle;spacingTop=-1;spacingLeft=3;spacingRight=3;rotatable=0;labelPosition=right;points=[];portConstraint=eastwest;" parent="1QQ3cwLplbujhVV3ZzxS-98" vertex="1">
          <mxGeometry y="26" width="160" height="8" as="geometry"/>
        </mxCell>
        <mxCell id="1QQ3cwLplbujhVV3ZzxS-111" value="+ StepActivity()" style="text;strokeColor=none;fillColor=none;align=left;verticalAlign=top;spacingLeft=4;spacingRight=4;overflow=hidden;rotatable=0;points=[[0,0.5],[1,0.5]];portConstraint=eastwest;" parent="1QQ3cwLplbujhVV3ZzxS-98" vertex="1">
          <mxGeometry y="34" width="160" height="26" as="geometry"/>
        </mxCell>
        <mxCell id="1QQ3cwLplbujhVV3ZzxS-115" value="+ analyse() : void" style="text;strokeColor=none;fillColor=none;align=left;verticalAlign=top;spacingLeft=4;spacingRight=4;overflow=hidden;rotatable=0;points=[[0,0.5],[1,0.5]];portConstraint=eastwest;" parent="1QQ3cwLplbujhVV3ZzxS-98" vertex="1">
          <mxGeometry y="60" width="160" height="26" as="geometry"/>
        </mxCell>
        <mxCell id="1QQ3cwLplbujhVV3ZzxS-51" value="PushUpEventArgs" style="swimlane;fontStyle=1;align=center;verticalAlign=top;childLayout=stackLayout;horizontal=1;startSize=26;horizontalStack=0;resizeParent=1;resizeParentMax=0;resizeLast=0;collapsible=1;marginBottom=0;" parent="1" vertex="1">
          <mxGeometry x="784.5" y="1151.5" width="210" height="34" as="geometry">
            <mxRectangle x="20" y="777" width="140" height="26" as="alternateBounds"/>
          </mxGeometry>
        </mxCell>
        <mxCell id="1QQ3cwLplbujhVV3ZzxS-53" value="" style="line;strokeWidth=1;fillColor=none;align=left;verticalAlign=middle;spacingTop=-1;spacingLeft=3;spacingRight=3;rotatable=0;labelPosition=right;points=[];portConstraint=eastwest;" parent="1QQ3cwLplbujhVV3ZzxS-51" vertex="1">
          <mxGeometry y="26" width="210" height="8" as="geometry"/>
        </mxCell>
        <mxCell id="1QQ3cwLplbujhVV3ZzxS-66" value="SitUpEventArgs" style="swimlane;fontStyle=1;align=center;verticalAlign=top;childLayout=stackLayout;horizontal=1;startSize=26;horizontalStack=0;resizeParent=1;resizeParentMax=0;resizeLast=0;collapsible=1;marginBottom=0;" parent="1" vertex="1">
          <mxGeometry x="1249.5" y="1151.5" width="210" height="34" as="geometry"/>
        </mxCell>
        <mxCell id="1QQ3cwLplbujhVV3ZzxS-69" value="" style="line;strokeWidth=1;fillColor=none;align=left;verticalAlign=middle;spacingTop=-1;spacingLeft=3;spacingRight=3;rotatable=0;labelPosition=right;points=[];portConstraint=eastwest;" parent="1QQ3cwLplbujhVV3ZzxS-66" vertex="1">
          <mxGeometry y="26" width="210" height="8" as="geometry"/>
        </mxCell>
        <mxCell id="1QQ3cwLplbujhVV3ZzxS-73" value="RunningEventArgs" style="swimlane;fontStyle=1;align=center;verticalAlign=top;childLayout=stackLayout;horizontal=1;startSize=26;horizontalStack=0;resizeParent=1;resizeParentMax=0;resizeLast=0;collapsible=1;marginBottom=0;" parent="1" vertex="1">
          <mxGeometry x="784.5" y="785.5" width="160" height="60" as="geometry"/>
        </mxCell>
        <mxCell id="1QQ3cwLplbujhVV3ZzxS-74" value="+ running : boolean" style="text;strokeColor=none;fillColor=none;align=left;verticalAlign=top;spacingLeft=4;spacingRight=4;overflow=hidden;rotatable=0;points=[[0,0.5],[1,0.5]];portConstraint=eastwest;" parent="1QQ3cwLplbujhVV3ZzxS-73" vertex="1">
          <mxGeometry y="26" width="160" height="26" as="geometry"/>
        </mxCell>
        <mxCell id="1QQ3cwLplbujhVV3ZzxS-76" value="" style="line;strokeWidth=1;fillColor=none;align=left;verticalAlign=middle;spacingTop=-1;spacingLeft=3;spacingRight=3;rotatable=0;labelPosition=right;points=[];portConstraint=eastwest;" parent="1QQ3cwLplbujhVV3ZzxS-73" vertex="1">
          <mxGeometry y="52" width="160" height="8" as="geometry"/>
        </mxCell>
        <mxCell id="1QQ3cwLplbujhVV3ZzxS-79" value="«interface»&lt;br&gt;&lt;b&gt;ActivityArgs&lt;br&gt;&lt;/b&gt;" style="html=1;" parent="1" vertex="1">
          <mxGeometry x="1067" y="789" width="110" height="50" as="geometry"/>
        </mxCell>
        <mxCell id="1QQ3cwLplbujhVV3ZzxS-83" value="StepEventArgs" style="swimlane;fontStyle=1;align=center;verticalAlign=top;childLayout=stackLayout;horizontal=1;startSize=26;horizontalStack=0;resizeParent=1;resizeParentMax=0;resizeLast=0;collapsible=1;marginBottom=0;" parent="1" vertex="1">
          <mxGeometry x="1017" y="1151" width="210" height="34" as="geometry"/>
        </mxCell>
        <mxCell id="1QQ3cwLplbujhVV3ZzxS-85" value="" style="line;strokeWidth=1;fillColor=none;align=left;verticalAlign=middle;spacingTop=-1;spacingLeft=3;spacingRight=3;rotatable=0;labelPosition=right;points=[];portConstraint=eastwest;" parent="1QQ3cwLplbujhVV3ZzxS-83" vertex="1">
          <mxGeometry y="26" width="210" height="8" as="geometry"/>
        </mxCell>
        <mxCell id="1QQ3cwLplbujhVV3ZzxS-87" value="&lt;p style=&quot;margin: 0px ; margin-top: 4px ; text-align: center&quot;&gt;&lt;i&gt;&amp;lt;&amp;lt;Interface&amp;gt;&amp;gt;&lt;/i&gt;&lt;br&gt;&lt;b&gt;CountableActivityArgs&lt;/b&gt;&lt;/p&gt;&lt;hr size=&quot;1&quot;&gt;&lt;p style=&quot;margin: 0px ; margin-left: 4px&quot;&gt;+ amount : int&lt;/p&gt;&lt;hr size=&quot;1&quot;&gt;&lt;p style=&quot;margin: 0px ; margin-left: 4px&quot;&gt;+ CountableActivityArgs(amount : int)&lt;/p&gt;" style="verticalAlign=top;align=left;overflow=fill;fontSize=12;fontFamily=Helvetica;html=1;" parent="1" vertex="1">
          <mxGeometry x="1002" y="911.5" width="240" height="98" as="geometry"/>
        </mxCell>
        <mxCell id="1QQ3cwLplbujhVV3ZzxS-88" value="Extends" style="endArrow=block;endSize=16;endFill=0;html=1;entryX=0.5;entryY=1;entryDx=0;entryDy=0;exitX=0.5;exitY=0;exitDx=0;exitDy=0;" parent="1" source="1QQ3cwLplbujhVV3ZzxS-87" target="1QQ3cwLplbujhVV3ZzxS-79" edge="1">
          <mxGeometry width="160" relative="1" as="geometry">
            <mxPoint x="1189.5" y="871.5" as="sourcePoint"/>
            <mxPoint x="1349.5" y="871.5" as="targetPoint"/>
          </mxGeometry>
        </mxCell>
        <mxCell id="1QQ3cwLplbujhVV3ZzxS-89" value="" style="endArrow=block;dashed=1;endFill=0;endSize=12;html=1;exitX=0.5;exitY=0;exitDx=0;exitDy=0;entryX=0.5;entryY=1;entryDx=0;entryDy=0;" parent="1" source="1QQ3cwLplbujhVV3ZzxS-83" target="1QQ3cwLplbujhVV3ZzxS-87" edge="1">
          <mxGeometry width="160" relative="1" as="geometry">
            <mxPoint x="1399.5" y="1021.5" as="sourcePoint"/>
            <mxPoint x="1559.5" y="1021.5" as="targetPoint"/>
          </mxGeometry>
        </mxCell>
        <mxCell id="1QQ3cwLplbujhVV3ZzxS-90" value="" style="endArrow=block;dashed=1;endFill=0;endSize=12;html=1;entryX=0.5;entryY=1;entryDx=0;entryDy=0;exitX=0.5;exitY=0;exitDx=0;exitDy=0;" parent="1" source="1QQ3cwLplbujhVV3ZzxS-51" target="1QQ3cwLplbujhVV3ZzxS-87" edge="1">
          <mxGeometry width="160" relative="1" as="geometry">
            <mxPoint x="1094.5" y="1098.5" as="sourcePoint"/>
            <mxPoint x="1269.5" y="1031.5" as="targetPoint"/>
          </mxGeometry>
        </mxCell>
        <mxCell id="1QQ3cwLplbujhVV3ZzxS-91" value="" style="endArrow=block;dashed=1;endFill=0;endSize=12;html=1;entryX=0.5;entryY=1;entryDx=0;entryDy=0;exitX=0.5;exitY=0;exitDx=0;exitDy=0;" parent="1" source="1QQ3cwLplbujhVV3ZzxS-66" target="1QQ3cwLplbujhVV3ZzxS-87" edge="1">
          <mxGeometry width="160" relative="1" as="geometry">
            <mxPoint x="1394.5" y="1118.5" as="sourcePoint"/>
            <mxPoint x="1299.5" y="1019.5" as="targetPoint"/>
          </mxGeometry>
        </mxCell>
        <mxCell id="1QQ3cwLplbujhVV3ZzxS-93" value="" style="endArrow=block;dashed=1;endFill=0;endSize=12;html=1;exitX=1;exitY=0.5;exitDx=0;exitDy=0;entryX=0;entryY=0.5;entryDx=0;entryDy=0;" parent="1" source="1QQ3cwLplbujhVV3ZzxS-73" target="1QQ3cwLplbujhVV3ZzxS-79" edge="1">
          <mxGeometry width="160" relative="1" as="geometry">
            <mxPoint x="1009.5" y="901.5" as="sourcePoint"/>
            <mxPoint x="1169.5" y="901.5" as="targetPoint"/>
          </mxGeometry>
        </mxCell>
        <mxCell id="1QQ3cwLplbujhVV3ZzxS-135" value="+ activities" style="endArrow=block;endFill=1;html=1;align=left;verticalAlign=top;entryX=0.5;entryY=0;entryDx=0;entryDy=0;" parent="1" source="1QQ3cwLplbujhVV3ZzxS-1" target="1QQ3cwLplbujhVV3ZzxS-45" edge="1">
          <mxGeometry x="0.7669" y="26" relative="1" as="geometry">
            <mxPoint x="465" y="562.5" as="sourcePoint"/>
            <mxPoint x="695" y="732.5" as="targetPoint"/>
            <mxPoint as="offset"/>
          </mxGeometry>
        </mxCell>
        <mxCell id="1QQ3cwLplbujhVV3ZzxS-141" value="&lt;font style=&quot;font-size: 20px&quot;&gt;Fragen:&lt;br&gt;- Sind die Settings im Model? (Username, Language, werden nicht in einer DB gespeichert))&lt;br&gt;- Sollen wir überhaupt buffern?&lt;br&gt;- DataBuffer Funktionalitäten auslagern?&lt;br&gt;-MultiLanguage funkt noch nicht?&lt;br&gt;&lt;/font&gt;" style="text;html=1;align=center;verticalAlign=middle;resizable=0;points=[];;autosize=1;" parent="1" vertex="1">
          <mxGeometry x="-337.5" y="-330" width="830" height="90" as="geometry"/>
        </mxCell>
        <mxCell id="n2-QzeIZX0uXDNsSAh_k-9" value="{abstract}&lt;br&gt;&lt;b&gt;AbstractSitUpActivity&lt;/b&gt;" style="html=1;" parent="1" vertex="1">
          <mxGeometry x="-145.5" y="973.5" width="160" height="50" as="geometry"/>
        </mxCell>
        <mxCell id="n2-QzeIZX0uXDNsSAh_k-11" value="{abstract}&lt;br&gt;&lt;b&gt;AbstractPushUpActivity&lt;/b&gt;" style="html=1;" parent="1" vertex="1">
          <mxGeometry x="480.5" y="973.5" width="150" height="50" as="geometry"/>
        </mxCell>
        <mxCell id="n2-QzeIZX0uXDNsSAh_k-12" value="{abstract}&lt;br&gt;&lt;b&gt;AbstractRunningActivity&lt;/b&gt;" style="html=1;" parent="1" vertex="1">
          <mxGeometry x="272" y="973.5" width="160" height="50" as="geometry"/>
        </mxCell>
        <mxCell id="n2-QzeIZX0uXDNsSAh_k-14" value="{abstract}&lt;br&gt;&lt;b&gt;AbstractStepActivity&lt;/b&gt;" style="html=1;" parent="1" vertex="1">
          <mxGeometry x="63.5" y="973.5" width="160" height="50" as="geometry"/>
        </mxCell>
        <mxCell id="n2-QzeIZX0uXDNsSAh_k-16" value="Extends" style="endArrow=block;endSize=16;endFill=0;html=1;exitX=0.5;exitY=0;exitDx=0;exitDy=0;entryX=0.5;entryY=1;entryDx=0;entryDy=0;" parent="1" source="1QQ3cwLplbujhVV3ZzxS-102" target="n2-QzeIZX0uXDNsSAh_k-9" edge="1">
          <mxGeometry width="160" relative="1" as="geometry">
            <mxPoint x="72" y="908.5" as="sourcePoint"/>
            <mxPoint x="-38" y="1038.5" as="targetPoint"/>
          </mxGeometry>
        </mxCell>
        <mxCell id="n2-QzeIZX0uXDNsSAh_k-17" value="Extends" style="endArrow=block;endSize=16;endFill=0;html=1;exitX=0.5;exitY=0;exitDx=0;exitDy=0;entryX=0.5;entryY=1;entryDx=0;entryDy=0;" parent="1" source="1QQ3cwLplbujhVV3ZzxS-98" target="n2-QzeIZX0uXDNsSAh_k-14" edge="1">
          <mxGeometry width="160" relative="1" as="geometry">
            <mxPoint x="138" y="967.5" as="sourcePoint"/>
            <mxPoint x="346" y="902" as="targetPoint"/>
          </mxGeometry>
        </mxCell>
        <mxCell id="n2-QzeIZX0uXDNsSAh_k-18" value="Extends" style="endArrow=block;endSize=16;endFill=0;html=1;exitX=0.5;exitY=0;exitDx=0;exitDy=0;entryX=0.5;entryY=1;entryDx=0;entryDy=0;" parent="1" source="1QQ3cwLplbujhVV3ZzxS-94" target="n2-QzeIZX0uXDNsSAh_k-12" edge="1">
          <mxGeometry width="160" relative="1" as="geometry">
            <mxPoint x="162" y="1085.5" as="sourcePoint"/>
            <mxPoint x="265" y="868.5" as="targetPoint"/>
          </mxGeometry>
        </mxCell>
        <mxCell id="n2-QzeIZX0uXDNsSAh_k-19" value="Extends" style="endArrow=block;endSize=16;endFill=0;html=1;exitX=0.5;exitY=0;exitDx=0;exitDy=0;entryX=0.5;entryY=1;entryDx=0;entryDy=0;" parent="1" source="1QQ3cwLplbujhVV3ZzxS-46" target="n2-QzeIZX0uXDNsSAh_k-11" edge="1">
          <mxGeometry width="160" relative="1" as="geometry">
            <mxPoint x="332" y="1085.5" as="sourcePoint"/>
            <mxPoint x="265" y="868.5" as="targetPoint"/>
          </mxGeometry>
        </mxCell>
        <mxCell id="sXvjfolYUnGrp_yOVfev-1" value="Extends" style="endArrow=block;endSize=16;endFill=0;html=1;exitX=0.5;exitY=0;exitDx=0;exitDy=0;entryX=0.5;entryY=1;entryDx=0;entryDy=0;" parent="1" source="n2-QzeIZX0uXDNsSAh_k-11" target="1QQ3cwLplbujhVV3ZzxS-45" edge="1">
          <mxGeometry width="160" relative="1" as="geometry">
            <mxPoint x="657" y="886.5" as="sourcePoint"/>
            <mxPoint x="322" y="878.5" as="targetPoint"/>
          </mxGeometry>
        </mxCell>
        <mxCell id="sXvjfolYUnGrp_yOVfev-2" value="Extends" style="endArrow=block;endSize=16;endFill=0;html=1;exitX=0.5;exitY=0;exitDx=0;exitDy=0;entryX=0.5;entryY=1;entryDx=0;entryDy=0;" parent="1" source="n2-QzeIZX0uXDNsSAh_k-12" target="1QQ3cwLplbujhVV3ZzxS-45" edge="1">
          <mxGeometry width="160" relative="1" as="geometry">
            <mxPoint x="332" y="1085.5" as="sourcePoint"/>
            <mxPoint x="265" y="868.5" as="targetPoint"/>
          </mxGeometry>
        </mxCell>
        <mxCell id="sXvjfolYUnGrp_yOVfev-3" value="Extends" style="endArrow=block;endSize=16;endFill=0;html=1;exitX=0.5;exitY=0;exitDx=0;exitDy=0;entryX=0.5;entryY=1;entryDx=0;entryDy=0;" parent="1" source="n2-QzeIZX0uXDNsSAh_k-14" target="1QQ3cwLplbujhVV3ZzxS-45" edge="1">
          <mxGeometry width="160" relative="1" as="geometry">
            <mxPoint x="342" y="1095.5" as="sourcePoint"/>
            <mxPoint x="252" y="888.5" as="targetPoint"/>
          </mxGeometry>
        </mxCell>
        <mxCell id="sXvjfolYUnGrp_yOVfev-4" value="Extends" style="endArrow=block;endSize=16;endFill=0;html=1;exitX=0.5;exitY=0;exitDx=0;exitDy=0;entryX=0.5;entryY=1;entryDx=0;entryDy=0;" parent="1" source="n2-QzeIZX0uXDNsSAh_k-9" target="1QQ3cwLplbujhVV3ZzxS-45" edge="1">
          <mxGeometry x="-0.0235" y="-3" width="160" relative="1" as="geometry">
            <mxPoint x="68" y="1075.5" as="sourcePoint"/>
            <mxPoint x="1" y="858.5" as="targetPoint"/>
            <mxPoint as="offset"/>
          </mxGeometry>
        </mxCell>
        <mxCell id="sXvjfolYUnGrp_yOVfev-15" value="&lt;p style=&quot;margin: 0px ; margin-top: 4px ; text-align: center&quot;&gt;&lt;i&gt;&amp;lt;&amp;lt;Interface&amp;gt;&amp;gt;&lt;/i&gt;&lt;br&gt;&lt;b&gt;IDataBaseConnection&lt;/b&gt;&lt;/p&gt;&lt;hr size=&quot;1&quot;&gt;&lt;p style=&quot;margin: 0px ; margin-left: 4px&quot;&gt;+ saveDBEntry(entry : DBEntry)&lt;/p&gt;&lt;p style=&quot;margin: 0px ; margin-left: 4px&quot;&gt;+ getEntriesAsync(): Task&amp;lt;List&amp;lt;DBEntry&amp;gt;&amp;gt;&lt;/p&gt;&lt;p style=&quot;margin: 0px ; margin-left: 4px&quot;&gt;+ importData(file : FileData)&amp;nbsp;&lt;/p&gt;&lt;p style=&quot;margin: 0px ; margin-left: 4px&quot;&gt;+ exportData(path : String)&lt;/p&gt;&lt;p style=&quot;margin: 0px ; margin-left: 4px&quot;&gt;&lt;span style=&quot;color: rgba(0 , 0 , 0 , 0) ; font-family: monospace ; font-size: 0px&quot;&gt;3CmxGraphModel%3E%3Croot%3E%3CmxCell%20id%3D%220%22%2F%3E%3CmxCell%20id%3D%221%22%20parent%3D%220%22%2F%3E%3CmxCell%20id%3D%222%22%20value%3D%22%2B%20getEntriesAsync()%3A%20Task%26lt%3BList%26lt%3BDBEntry%26gt%3B%26gt%3B%22%20style%3D%22text%3BstrokeColor%3Dnone%3BfillColor%3Dnone%3Balign%3Dleft%3BverticalAlign%3Dtop%3BspacingLeft%3D4%3BspacingRight%3D4%3Boverflow%3Dhidden%3Brotatable%3D0%3Bpoints%3D%5B%5B0%2C0.5%5D%2C%5B1%2C0.5%5D%5D%3BportConstraint%3Deastwest%3B%22%20vertex%3D%221%22%20parent%3D%221%22%3E%3CmxGeometry%20x%3D%221080%22%20y%3D%22493%22%20width%3D%22250%22%20height%3D%2226%22%20as%3D%22geometry%22%2F%3E%3C%2FmxCell%3E%3C%2Froot%3E%3C%2FmxGraphModel%3E&lt;/span&gt;&lt;/p&gt;&lt;span style=&quot;color: rgba(0 , 0 , 0 , 0) ; font-family: monospace ; font-size: 0px&quot;&gt;%3CmxGraphModel%3E%3Croot%3E%3CmxCell%20id%3D%220%22%2F%3E%3CmxCell%20id%3D%221%22%20parent%3D%220%22%2F%3E%3CmxCell%20id%3D%222%22%20value%3D%22%2B%20getEntriesAsync()%3A%20Task%26lt%3BList%26lt%3BDBEntry%26gt%3B%26gt%3B%22%20style%3D%22text%3BstrokeColor%3Dnone%3BfillColor%3Dnone%3Balign%3Dleft%3BverticalAlign%3Dtop%3BspacingLeft%3D4%3BspacingRight%3D4%3Boverflow%3Dhidden%3Brotatable%3D0%3Bpoints%3D%5B%5B0%2C0.5%5D%2C%5B1%2C0.5%5D%5D%3BportConstraint%3Deastwest%3B%22%20vertex%3D%221%22%20parent%3D%221%22%3E%3CmxGeometry%20x%3D%221080%22%20y%3D%22493%22%20width%3D%22250%22%20height%3D%2226%22%20as%3D%22geometry%22%2F%3E%3C%2FmxCell%3E%3C%2Froot%3E%3C%2FmxGraphModel%3E&lt;/span&gt;&lt;span style=&quot;color: rgba(0 , 0 , 0 , 0) ; font-family: monospace ; font-size: 0px&quot;&gt;%3CmxGraphModel%3E%3Croot%3E%3CmxCell%20id%3D%220%22%2F%3E%3CmxCell%20id%3D%221%22%20parent%3D%220%22%2F%3E%3CmxCell%20id%3D%222%22%20value%3D%22%2B%20getEntriesAsync()%3A%20Task%26lt%3BList%26lt%3BDBEntry%26gt%3B%26gt%3B%22%20style%3D%22text%3BstrokeColor%3Dnone%3BfillColor%3Dnone%3Balign%3Dleft%3BverticalAlign%3Dtop%3BspacingLeft%3D4%3BspacingRight%3D4%3Boverflow%3Dhidden%3Brotatable%3D0%3Bpoints%3D%5B%5B0%2C0.5%5D%2C%5B1%2C0.5%5D%5D%3BportConstraint%3Deastwest%3B%22%20vertex%3D%221%22%20parent%3D%221%22%3E%3CmxGeometry%20x%3D%221080%22%20y%3D%22493%22%20width%3D%22250%22%20height%3D%2226%22%20as%3D%22geometry%22%2F%3E%3C%2FmxCell%3E%3C%2Froot%3E%3C%2FmxGraphModel%3E&lt;/span&gt;" style="verticalAlign=top;align=left;overflow=fill;fontSize=12;fontFamily=Helvetica;html=1;" parent="1" vertex="1">
          <mxGeometry x="-850.5" y="791" width="290" height="140" as="geometry"/>
        </mxCell>
        <mxCell id="sXvjfolYUnGrp_yOVfev-22" value="&lt;p style=&quot;margin: 0px ; margin-top: 4px ; text-align: center&quot;&gt;&lt;b&gt;SQLiteAsyncConnection&lt;/b&gt;&lt;/p&gt;" style="verticalAlign=top;align=left;overflow=fill;fontSize=12;fontFamily=Helvetica;html=1;" parent="1" vertex="1">
          <mxGeometry x="-560.5" y="1004.5" width="170" height="30" as="geometry"/>
        </mxCell>
        <mxCell id="sXvjfolYUnGrp_yOVfev-26" value="" style="endArrow=block;dashed=1;endFill=0;endSize=12;html=1;" parent="1" source="sXvjfolYUnGrp_yOVfev-16" target="sXvjfolYUnGrp_yOVfev-15" edge="1">
          <mxGeometry width="160" relative="1" as="geometry">
            <mxPoint x="-386.5" y="850.5" as="sourcePoint"/>
            <mxPoint x="-346.5" y="875.5" as="targetPoint"/>
          </mxGeometry>
        </mxCell>
        <mxCell id="sXvjfolYUnGrp_yOVfev-36" value="_database&amp;nbsp; &amp;nbsp; &amp;nbsp;1" style="rounded=0;orthogonalLoop=1;jettySize=auto;html=1;entryX=0;entryY=0.5;entryDx=0;entryDy=0;exitX=1;exitY=0.154;exitDx=0;exitDy=0;exitPerimeter=0;fontStyle=0;fontSize=7;" parent="1" source="sXvjfolYUnGrp_yOVfev-17" target="sXvjfolYUnGrp_yOVfev-22" edge="1">
          <mxGeometry x="0.6842" y="15" relative="1" as="geometry">
            <mxPoint as="offset"/>
          </mxGeometry>
        </mxCell>
        <mxCell id="sXvjfolYUnGrp_yOVfev-16" value="DatabaseConnection" style="swimlane;fontStyle=1;align=center;verticalAlign=top;childLayout=stackLayout;horizontal=1;startSize=26;horizontalStack=0;resizeParent=1;resizeParentMax=0;resizeLast=0;collapsible=1;marginBottom=0;" parent="1" vertex="1">
          <mxGeometry x="-785.5" y="989.5" width="160" height="60" as="geometry"/>
        </mxCell>
        <mxCell id="sXvjfolYUnGrp_yOVfev-17" value="- path : string" style="text;strokeColor=none;fillColor=none;align=left;verticalAlign=top;spacingLeft=4;spacingRight=4;overflow=hidden;rotatable=0;points=[[0,0.5],[1,0.5]];portConstraint=eastwest;" parent="sXvjfolYUnGrp_yOVfev-16" vertex="1">
          <mxGeometry y="26" width="160" height="26" as="geometry"/>
        </mxCell>
        <mxCell id="sXvjfolYUnGrp_yOVfev-18" value="" style="line;strokeWidth=1;fillColor=none;align=left;verticalAlign=middle;spacingTop=-1;spacingLeft=3;spacingRight=3;rotatable=0;labelPosition=right;points=[];portConstraint=eastwest;" parent="sXvjfolYUnGrp_yOVfev-16" vertex="1">
          <mxGeometry y="52" width="160" height="8" as="geometry"/>
        </mxCell>
        <mxCell id="sXvjfolYUnGrp_yOVfev-40" value="DBEntry" style="swimlane;fontStyle=1;align=center;verticalAlign=top;childLayout=stackLayout;horizontal=1;startSize=26;horizontalStack=0;resizeParent=1;resizeParentMax=0;resizeLast=0;collapsible=1;marginBottom=0;fontSize=11;" parent="1" vertex="1">
          <mxGeometry x="-785.5" y="1096" width="160" height="164" as="geometry"/>
        </mxCell>
        <mxCell id="sXvjfolYUnGrp_yOVfev-41" value="+ Date : DateTime" style="text;strokeColor=none;fillColor=none;align=left;verticalAlign=top;spacingLeft=4;spacingRight=4;overflow=hidden;rotatable=0;points=[[0,0.5],[1,0.5]];portConstraint=eastwest;" parent="sXvjfolYUnGrp_yOVfev-40" vertex="1">
          <mxGeometry y="26" width="160" height="26" as="geometry"/>
        </mxCell>
        <mxCell id="sXvjfolYUnGrp_yOVfev-45" value="+ Liegestützen : int" style="text;strokeColor=none;fillColor=none;align=left;verticalAlign=top;spacingLeft=4;spacingRight=4;overflow=hidden;rotatable=0;points=[[0,0.5],[1,0.5]];portConstraint=eastwest;" parent="sXvjfolYUnGrp_yOVfev-40" vertex="1">
          <mxGeometry y="52" width="160" height="26" as="geometry"/>
        </mxCell>
        <mxCell id="sXvjfolYUnGrp_yOVfev-46" value="+ SitUps : int" style="text;strokeColor=none;fillColor=none;align=left;verticalAlign=top;spacingLeft=4;spacingRight=4;overflow=hidden;rotatable=0;points=[[0,0.5],[1,0.5]];portConstraint=eastwest;" parent="sXvjfolYUnGrp_yOVfev-40" vertex="1">
          <mxGeometry y="78" width="160" height="26" as="geometry"/>
        </mxCell>
        <mxCell id="sXvjfolYUnGrp_yOVfev-44" value="+ Schritte : int" style="text;strokeColor=none;fillColor=none;align=left;verticalAlign=top;spacingLeft=4;spacingRight=4;overflow=hidden;rotatable=0;points=[[0,0.5],[1,0.5]];portConstraint=eastwest;" parent="sXvjfolYUnGrp_yOVfev-40" vertex="1">
          <mxGeometry y="104" width="160" height="26" as="geometry"/>
        </mxCell>
        <mxCell id="sXvjfolYUnGrp_yOVfev-42" value="" style="line;strokeWidth=1;fillColor=none;align=left;verticalAlign=middle;spacingTop=-1;spacingLeft=3;spacingRight=3;rotatable=0;labelPosition=right;points=[];portConstraint=eastwest;" parent="sXvjfolYUnGrp_yOVfev-40" vertex="1">
          <mxGeometry y="130" width="160" height="8" as="geometry"/>
        </mxCell>
        <mxCell id="sXvjfolYUnGrp_yOVfev-43" value="+ toString() : string" style="text;strokeColor=none;fillColor=none;align=left;verticalAlign=top;spacingLeft=4;spacingRight=4;overflow=hidden;rotatable=0;points=[[0,0.5],[1,0.5]];portConstraint=eastwest;" parent="sXvjfolYUnGrp_yOVfev-40" vertex="1">
          <mxGeometry y="138" width="160" height="26" as="geometry"/>
        </mxCell>
        <mxCell id="sXvjfolYUnGrp_yOVfev-48" value="" style="text;strokeColor=none;fillColor=none;align=left;verticalAlign=middle;spacingTop=-1;spacingLeft=4;spacingRight=4;rotatable=0;labelPosition=right;points=[];portConstraint=eastwest;fontSize=11;" parent="1" vertex="1">
          <mxGeometry x="47" y="729.5" width="415" height="14" as="geometry"/>
        </mxCell>
        <mxCell id="sXvjfolYUnGrp_yOVfev-51" value="" style="line;strokeWidth=1;fillColor=none;align=left;verticalAlign=middle;spacingTop=-1;spacingLeft=3;spacingRight=3;rotatable=0;labelPosition=right;points=[];portConstraint=eastwest;fontSize=11;" parent="1" vertex="1">
          <mxGeometry x="47" y="732.5" width="415" height="8" as="geometry"/>
        </mxCell>
        <mxCell id="sXvjfolYUnGrp_yOVfev-52" value="LanguageService" style="swimlane;fontStyle=1;align=center;verticalAlign=top;childLayout=stackLayout;horizontal=1;startSize=26;horizontalStack=0;resizeParent=1;resizeParentMax=0;resizeLast=0;collapsible=1;marginBottom=0;" parent="1" vertex="1">
          <mxGeometry x="2580" y="737.5" width="160" height="34" as="geometry"/>
        </mxCell>
        <mxCell id="sXvjfolYUnGrp_yOVfev-53" value="" style="line;strokeWidth=1;fillColor=none;align=left;verticalAlign=middle;spacingTop=-1;spacingLeft=3;spacingRight=3;rotatable=0;labelPosition=right;points=[];portConstraint=eastwest;" parent="sXvjfolYUnGrp_yOVfev-52" vertex="1">
          <mxGeometry y="26" width="160" height="8" as="geometry"/>
        </mxCell>
        <mxCell id="sXvjfolYUnGrp_yOVfev-54" value="TextToSpeechService" style="swimlane;fontStyle=1;align=center;verticalAlign=top;childLayout=stackLayout;horizontal=1;startSize=26;horizontalStack=0;resizeParent=1;resizeParentMax=0;resizeLast=0;collapsible=1;marginBottom=0;" parent="1" vertex="1">
          <mxGeometry x="2740" y="647.5" width="160" height="34" as="geometry"/>
        </mxCell>
        <mxCell id="sXvjfolYUnGrp_yOVfev-55" value="" style="line;strokeWidth=1;fillColor=none;align=left;verticalAlign=middle;spacingTop=-1;spacingLeft=3;spacingRight=3;rotatable=0;labelPosition=right;points=[];portConstraint=eastwest;" parent="sXvjfolYUnGrp_yOVfev-54" vertex="1">
          <mxGeometry y="26" width="160" height="8" as="geometry"/>
        </mxCell>
        <mxCell id="sXvjfolYUnGrp_yOVfev-64" value="ServiceManager" style="swimlane;fontStyle=1;align=center;verticalAlign=top;childLayout=stackLayout;horizontal=1;startSize=26;horizontalStack=0;resizeParent=1;resizeParentMax=0;resizeLast=0;collapsible=1;marginBottom=0;strokeWidth=1;fontSize=12;" parent="1" vertex="1">
          <mxGeometry x="-820" y="349.5" width="550" height="86" as="geometry"/>
        </mxCell>
        <mxCell id="sXvjfolYUnGrp_yOVfev-65" value="+ serviceProvider : ServiceProvider" style="text;strokeColor=none;fillColor=none;align=left;verticalAlign=top;spacingLeft=4;spacingRight=4;overflow=hidden;rotatable=0;points=[[0,0.5],[1,0.5]];portConstraint=eastwest;" parent="sXvjfolYUnGrp_yOVfev-64" vertex="1">
          <mxGeometry y="26" width="550" height="26" as="geometry"/>
        </mxCell>
        <mxCell id="sXvjfolYUnGrp_yOVfev-66" value="" style="line;strokeWidth=1;fillColor=none;align=left;verticalAlign=middle;spacingTop=-1;spacingLeft=3;spacingRight=3;rotatable=0;labelPosition=right;points=[];portConstraint=eastwest;" parent="sXvjfolYUnGrp_yOVfev-64" vertex="1">
          <mxGeometry y="52" width="550" height="8" as="geometry"/>
        </mxCell>
        <mxCell id="sXvjfolYUnGrp_yOVfev-67" value="+ Servicemanager()" style="text;strokeColor=none;fillColor=none;align=left;verticalAlign=top;spacingLeft=4;spacingRight=4;overflow=hidden;rotatable=0;points=[[0,0.5],[1,0.5]];portConstraint=eastwest;" parent="sXvjfolYUnGrp_yOVfev-64" vertex="1">
          <mxGeometry y="60" width="550" height="26" as="geometry"/>
        </mxCell>
        <mxCell id="sXvjfolYUnGrp_yOVfev-74" value="schickt Daten per DatenEventArgs" style="endArrow=open;endSize=12;dashed=1;html=1;fontSize=12;entryX=0;entryY=0.5;entryDx=0;entryDy=0;" parent="1" source="4jUEhYQWBBL92VZrlt_O-1" target="n2-QzeIZX0uXDNsSAh_k-1" edge="1">
          <mxGeometry width="160" relative="1" as="geometry">
            <mxPoint x="-800" y="210" as="sourcePoint"/>
            <mxPoint x="-400" y="286" as="targetPoint"/>
            <Array as="points">
              <mxPoint x="-240" y="500"/>
            </Array>
          </mxGeometry>
        </mxCell>
        <mxCell id="XCtTQCzG72HCAti6Qc9I-16" style="edgeStyle=orthogonalEdgeStyle;rounded=0;orthogonalLoop=1;jettySize=auto;html=1;exitX=0.5;exitY=1;exitDx=0;exitDy=0;" parent="1" source="4jUEhYQWBBL92VZrlt_O-1" target="XCtTQCzG72HCAti6Qc9I-15" edge="1">
          <mxGeometry relative="1" as="geometry"/>
        </mxCell>
        <mxCell id="4jUEhYQWBBL92VZrlt_O-1" value="&lt;p style=&quot;margin: 0px ; margin-top: 4px ; text-align: center&quot;&gt;&lt;b&gt;BibMain&lt;/b&gt;&lt;/p&gt;&lt;hr size=&quot;1&quot;&gt;&lt;p style=&quot;margin: 0px ; margin-left: 4px&quot;&gt;- ble_conection: BLE_Conection&lt;/p&gt;&lt;p style=&quot;margin: 0px ; margin-left: 4px&quot;&gt;+ IMUDataRecieved: EventHandler&amp;lt;DataEventArgs&amp;gt;&lt;/p&gt;&lt;p style=&quot;margin: 0px 0px 0px 4px&quot;&gt;+ buttonPressedHandler: EventHandler&amp;lt;&amp;gt;&lt;/p&gt;&lt;p style=&quot;margin: 0px 0px 0px 4px&quot;&gt;+ deviceConnectionStateChanged: EventHandler&amp;lt;&amp;gt;&lt;/p&gt;&lt;p style=&quot;margin: 0px 0px 0px 4px&quot;&gt;+ ble: IBluetoothLE&lt;/p&gt;&lt;p style=&quot;margin: 0px 0px 0px 4px&quot;&gt;+ adapte : IAdapter&lt;/p&gt;&lt;p style=&quot;margin: 0px 0px 0px 4px&quot;&gt;+ device: IDevice&lt;/p&gt;&lt;hr size=&quot;1&quot;&gt;&lt;p style=&quot;margin: 0px 0px 0px 4px&quot;&gt;+ startScanning(): DeviceList&amp;lt;List&amp;gt;&lt;/p&gt;&lt;p style=&quot;margin: 0px 0px 0px 4px&quot;&gt;+ connectToDevice(device: IDevice): Boolean&lt;/p&gt;&lt;p style=&quot;margin: 0px 0px 0px 4px&quot;&gt;+ disconnectFromDevice(): Boolean&lt;/p&gt;&lt;p style=&quot;margin: 0px ; margin-left: 4px&quot;&gt;+ startSampling(): Boolean&lt;/p&gt;&lt;p style=&quot;margin: 0px ; margin-left: 4px&quot;&gt;+ stopSampling(): Boolean&lt;/p&gt;&lt;p style=&quot;margin: 0px ; margin-left: 4px&quot;&gt;+ setSamplingrate(heart int): Boolean&lt;/p&gt;&lt;p style=&quot;margin: 0px ; margin-left: 4px&quot;&gt;+ setLowPassFilterAccelerometer(gyroscopeLPF Enum): Boolean&lt;/p&gt;&lt;p style=&quot;margin: 0px ; margin-left: 4px&quot;&gt;+ getLowPassFilterAccelerometer(): Enum&lt;br&gt;&lt;/p&gt;&lt;p style=&quot;margin: 0px ; margin-left: 4px&quot;&gt;+ setLowPassFilterGyroscope(accelerometerLPF Enum): Boolean&lt;br&gt;&lt;/p&gt;&lt;p style=&quot;margin: 0px ; margin-left: 4px&quot;&gt;+ getLowPassFilterGyroscope(): Enum&lt;br&gt;&lt;/p&gt;&lt;p style=&quot;margin: 0px ; margin-left: 4px&quot;&gt;+ getBatteryVoltage(): int&lt;/p&gt;&lt;p style=&quot;margin: 0px ; margin-left: 4px&quot;&gt;- onIMUDataReceived(): void&lt;/p&gt;&lt;p style=&quot;margin: 0px ; margin-left: 4px&quot;&gt;- onPushButtonPressed(): void&lt;/p&gt;&lt;p style=&quot;margin: 0px ; margin-left: 4px&quot;&gt;- onDeviceConnected(): void&lt;/p&gt;&lt;p style=&quot;margin: 0px ; margin-left: 4px&quot;&gt;&lt;br&gt;&lt;/p&gt;&lt;p style=&quot;margin: 0px ; margin-left: 4px&quot;&gt;&amp;nbsp;&lt;/p&gt;" style="verticalAlign=top;align=left;overflow=fill;fontSize=12;fontFamily=Helvetica;html=1;rounded=0;shadow=0;comic=0;labelBackgroundColor=none;strokeWidth=1" parent="1" vertex="1">
          <mxGeometry x="-2000" y="307" width="440" height="393" as="geometry"/>
        </mxCell>
        <mxCell id="4jUEhYQWBBL92VZrlt_O-2" value="&lt;p style=&quot;margin: 0px ; margin-top: 4px ; text-align: center&quot;&gt;{Abstract}&lt;/p&gt;&lt;p style=&quot;margin: 0px ; margin-top: 4px ; text-align: center&quot;&gt;&lt;b&gt;Constants&lt;/b&gt;&lt;/p&gt;&lt;hr size=&quot;1&quot;&gt;&lt;p style=&quot;margin: 0px ; margin-left: 4px&quot;&gt;+ START/STOP_IMU_SAMPLIG_CHAR: String&lt;/p&gt;&lt;p style=&quot;margin: 0px ; margin-left: 4px&quot;&gt;+ SENSORDATA_CHAR: String&lt;/p&gt;&lt;p style=&quot;margin: 0px ; margin-left: 4px&quot;&gt;+ BUSHBUTTON_CHAR : String&lt;/p&gt;&lt;p style=&quot;margin: 0px ; margin-left: 4px&quot;&gt;+ BATTERY_CHAR: String&lt;br&gt;&lt;/p&gt;&lt;p style=&quot;margin: 0px ; margin-left: 4px&quot;&gt;+ ACCELEROMETER_GYROSCOPE_CONFIG_CHAR: String&lt;/p&gt;&lt;p style=&quot;margin: 0px ; margin-left: 4px&quot;&gt;+ NOTIFICATION_DESCRIPTOR; String&lt;/p&gt;&lt;p style=&quot;margin: 0px ; margin-left: 4px&quot;&gt;+ ACCES_SERVICE: String&lt;/p&gt;&lt;p style=&quot;margin: 0px ; margin-left: 4px&quot;&gt;+ NOCH_EIN_SERVICE_SERVICE: String&lt;/p&gt;&lt;p style=&quot;margin: 0px ; margin-left: 4px&quot;&gt;&lt;br&gt;&lt;/p&gt;&lt;hr size=&quot;1&quot;&gt;&lt;p style=&quot;margin: 0px ; margin-left: 4px&quot;&gt;&lt;br&gt;&lt;/p&gt;" style="verticalAlign=top;align=left;overflow=fill;fontSize=12;fontFamily=Helvetica;html=1;rounded=0;shadow=0;comic=0;labelBackgroundColor=none;strokeWidth=1" parent="1" vertex="1">
          <mxGeometry x="-2220" y="26" width="380" height="174" as="geometry"/>
        </mxCell>
        <mxCell id="XCtTQCzG72HCAti6Qc9I-7" style="edgeStyle=orthogonalEdgeStyle;rounded=0;orthogonalLoop=1;jettySize=auto;html=1;" parent="1" source="4jUEhYQWBBL92VZrlt_O-3" target="XCtTQCzG72HCAti6Qc9I-2" edge="1">
          <mxGeometry relative="1" as="geometry"/>
        </mxCell>
        <mxCell id="XCtTQCzG72HCAti6Qc9I-8" style="edgeStyle=orthogonalEdgeStyle;rounded=0;orthogonalLoop=1;jettySize=auto;html=1;exitX=1;exitY=0.5;exitDx=0;exitDy=0;entryX=0;entryY=0.5;entryDx=0;entryDy=0;" parent="1" source="4jUEhYQWBBL92VZrlt_O-3" target="XCtTQCzG72HCAti6Qc9I-3" edge="1">
          <mxGeometry relative="1" as="geometry"/>
        </mxCell>
        <mxCell id="4jUEhYQWBBL92VZrlt_O-3" value="&lt;p style=&quot;margin: 0px ; margin-top: 4px ; text-align: center&quot;&gt;&lt;b&gt;IMUDataEntry&lt;/b&gt;&lt;/p&gt;&lt;hr size=&quot;1&quot;&gt;&lt;p style=&quot;margin: 0px ; margin-left: 4px&quot;&gt;+ gyroscope: Gyroscope&lt;/p&gt;&lt;p style=&quot;margin: 0px ; margin-left: 4px&quot;&gt;+ accelerometer: Accelerometer&lt;/p&gt;&lt;br&gt;&lt;hr size=&quot;1&quot;&gt;&lt;p style=&quot;margin: 0px ; margin-left: 4px&quot;&gt;&lt;br&gt;&lt;/p&gt;" style="verticalAlign=top;align=left;overflow=fill;fontSize=12;fontFamily=Helvetica;html=1;rounded=0;shadow=0;comic=0;labelBackgroundColor=none;strokeWidth=1" parent="1" vertex="1">
          <mxGeometry x="-1887.5" y="1025" width="215" height="95" as="geometry"/>
        </mxCell>
        <mxCell id="4jUEhYQWBBL92VZrlt_O-4" value="&lt;p style=&quot;margin: 0px ; margin-top: 4px ; text-align: center&quot;&gt;&lt;b&gt;ConfigContainer&lt;/b&gt;&lt;/p&gt;&lt;hr size=&quot;1&quot;&gt;&lt;p style=&quot;margin: 0px ; margin-left: 4px&quot;&gt;+ samplerate: int&lt;/p&gt;&lt;p style=&quot;margin: 0px 0px 0px 4px&quot;&gt;+ GYROSCOPE_LPF: Enum&lt;/p&gt;&lt;p style=&quot;margin: 0px 0px 0px 4px&quot;&gt;+ ACCELEROMETER_LPF: Enum&lt;/p&gt;&lt;hr size=&quot;1&quot;&gt;&lt;p style=&quot;margin: 0px ; margin-left: 4px&quot;&gt;&lt;br&gt;&lt;/p&gt;" style="verticalAlign=top;align=left;overflow=fill;fontSize=12;fontFamily=Helvetica;html=1;rounded=0;shadow=0;comic=0;labelBackgroundColor=none;strokeWidth=1" parent="1" vertex="1">
          <mxGeometry x="-1445" y="510" width="205" height="90" as="geometry"/>
        </mxCell>
        <mxCell id="4jUEhYQWBBL92VZrlt_O-5" value="&amp;lt;&amp;lt;uses&amp;gt;&amp;gt;" style="text;html=1;strokeColor=none;fillColor=none;align=center;verticalAlign=middle;whiteSpace=wrap;rounded=0;" parent="1" vertex="1">
          <mxGeometry x="-2060" y="463.5" width="40" height="20" as="geometry"/>
        </mxCell>
        <mxCell id="4jUEhYQWBBL92VZrlt_O-6" value="" style="endArrow=classic;html=1;entryX=0.824;entryY=1;entryDx=0;entryDy=0;entryPerimeter=0;" parent="1" source="4jUEhYQWBBL92VZrlt_O-1" target="4jUEhYQWBBL92VZrlt_O-2" edge="1">
          <mxGeometry width="50" height="50" relative="1" as="geometry">
            <mxPoint x="-2140" y="1166" as="sourcePoint"/>
            <mxPoint x="-2090" y="1116" as="targetPoint"/>
          </mxGeometry>
        </mxCell>
        <mxCell id="4jUEhYQWBBL92VZrlt_O-7" value="" style="endArrow=classic;html=1;" parent="1" source="4jUEhYQWBBL92VZrlt_O-1" target="4jUEhYQWBBL92VZrlt_O-4" edge="1">
          <mxGeometry width="50" height="50" relative="1" as="geometry">
            <mxPoint x="-1680" y="206" as="sourcePoint"/>
            <mxPoint x="-1630" y="156" as="targetPoint"/>
          </mxGeometry>
        </mxCell>
        <mxCell id="4jUEhYQWBBL92VZrlt_O-8" value="" style="endArrow=classic;html=1;" parent="1" source="4jUEhYQWBBL92VZrlt_O-1" target="4jUEhYQWBBL92VZrlt_O-9" edge="1">
          <mxGeometry width="50" height="50" relative="1" as="geometry">
            <mxPoint x="-2140" y="1166" as="sourcePoint"/>
            <mxPoint x="-1910" y="388.37704918032796" as="targetPoint"/>
          </mxGeometry>
        </mxCell>
        <mxCell id="4jUEhYQWBBL92VZrlt_O-9" value="BLE_Plugin" style="rounded=0;whiteSpace=wrap;html=1;" parent="1" vertex="1">
          <mxGeometry x="-2220" y="463.5" width="120" height="60" as="geometry"/>
        </mxCell>
        <mxCell id="4jUEhYQWBBL92VZrlt_O-11" value="Bibliothek" style="text;html=1;strokeColor=none;fillColor=none;align=center;verticalAlign=middle;whiteSpace=wrap;rounded=0;" parent="1" vertex="1">
          <mxGeometry x="-2360" y="-38" width="180" height="38" as="geometry"/>
        </mxCell>
        <mxCell id="4jUEhYQWBBL92VZrlt_O-12" value="&lt;p style=&quot;margin: 0px ; margin-top: 4px ; text-align: center&quot;&gt;&lt;i&gt;&amp;lt;&amp;lt;Interface&amp;gt;&amp;gt;&lt;/i&gt;&lt;br&gt;&lt;b&gt;IManager&lt;/b&gt;&lt;/p&gt;&lt;hr size=&quot;1&quot;&gt;&lt;p style=&quot;margin: 0px ; margin-left: 4px&quot;&gt;&lt;br&gt;&lt;/p&gt;&lt;hr size=&quot;1&quot;&gt;&lt;p style=&quot;margin: 0px ; margin-left: 4px&quot;&gt;- serviceRegistration&lt;span&gt;(out collection IServiceCollection)&lt;/span&gt;&lt;/p&gt;" style="verticalAlign=top;align=left;overflow=fill;fontSize=12;fontFamily=Helvetica;html=1;" parent="1" vertex="1">
          <mxGeometry x="-59" y="80" width="310" height="140" as="geometry"/>
        </mxCell>
        <mxCell id="4jUEhYQWBBL92VZrlt_O-15" value="" style="endArrow=block;dashed=1;endFill=0;endSize=12;html=1;" parent="1" source="sXvjfolYUnGrp_yOVfev-64" target="4jUEhYQWBBL92VZrlt_O-12" edge="1">
          <mxGeometry width="160" relative="1" as="geometry">
            <mxPoint x="-120" y="520" as="sourcePoint"/>
            <mxPoint x="-90" y="560" as="targetPoint"/>
          </mxGeometry>
        </mxCell>
        <mxCell id="4jUEhYQWBBL92VZrlt_O-14" value="" style="endArrow=block;dashed=1;endFill=0;endSize=12;html=1;" parent="1" source="1QQ3cwLplbujhVV3ZzxS-1" target="4jUEhYQWBBL92VZrlt_O-12" edge="1">
          <mxGeometry width="160" relative="1" as="geometry">
            <mxPoint x="294.5" y="686.5" as="sourcePoint"/>
            <mxPoint x="454.5" y="686.5" as="targetPoint"/>
          </mxGeometry>
        </mxCell>
        <mxCell id="mTHoaqH5w0DHYMugpqkl-6" value="&lt;p style=&quot;margin: 0px ; margin-top: 4px ; text-align: center&quot;&gt;&lt;b&gt;SettingsService&lt;/b&gt;&lt;/p&gt;&lt;hr size=&quot;1&quot;&gt;&lt;p style=&quot;margin: 0px ; margin-left: 4px&quot;&gt;+ username: String&lt;/p&gt;&lt;p style=&quot;margin: 0px ; margin-left: 4px&quot;&gt;+ stephlength: String&lt;/p&gt;&lt;p style=&quot;margin: 0px ; margin-left: 4px&quot;&gt;+ language: String&lt;/p&gt;&lt;hr size=&quot;1&quot;&gt;&lt;p style=&quot;margin: 0px ; margin-left: 4px&quot;&gt;&lt;br&gt;&lt;/p&gt;" style="verticalAlign=top;align=left;overflow=fill;fontSize=12;fontFamily=Helvetica;html=1;" parent="1" vertex="1">
          <mxGeometry x="-459.5" y="798" width="160" height="109" as="geometry"/>
        </mxCell>
        <mxCell id="XCtTQCzG72HCAti6Qc9I-2" value="&lt;p style=&quot;margin: 0px ; margin-top: 4px ; text-align: center&quot;&gt;&lt;b&gt;Gyroscope&lt;/b&gt;&lt;/p&gt;&lt;hr size=&quot;1&quot;&gt;&lt;p style=&quot;margin: 0px 0px 0px 4px&quot;&gt;+ deg/s_X: float&lt;/p&gt;&lt;p style=&quot;margin: 0px 0px 0px 4px&quot;&gt;+ deg/s_Y: float&lt;br&gt;&lt;/p&gt;&lt;p style=&quot;margin: 0px 0px 0px 4px&quot;&gt;+ deg/s_Z: float&lt;br&gt;&lt;/p&gt;&lt;hr size=&quot;1&quot;&gt;&lt;p style=&quot;margin: 0px ; margin-left: 4px&quot;&gt;&lt;br&gt;&lt;/p&gt;" style="verticalAlign=top;align=left;overflow=fill;fontSize=12;fontFamily=Helvetica;html=1;" parent="1" vertex="1">
          <mxGeometry x="-2115" y="1030.5" width="160" height="85" as="geometry"/>
        </mxCell>
        <mxCell id="XCtTQCzG72HCAti6Qc9I-3" value="&lt;p style=&quot;margin: 0px ; margin-top: 4px ; text-align: center&quot;&gt;&lt;b&gt;Accelerometer&lt;/b&gt;&lt;/p&gt;&lt;hr size=&quot;1&quot;&gt;&lt;p style=&quot;margin: 0px 0px 0px 4px&quot;&gt;+ m/s^2_X: float&lt;br&gt;&lt;/p&gt;&lt;p style=&quot;margin: 0px 0px 0px 4px&quot;&gt;+ m/s^2_Y: float&lt;br&gt;&lt;/p&gt;&lt;p style=&quot;margin: 0px 0px 0px 4px&quot;&gt;+ m/s^2_Z: float&lt;br&gt;&lt;/p&gt;&lt;p style=&quot;margin: 0px 0px 0px 4px&quot;&gt;+ g_X: float&lt;/p&gt;&lt;p style=&quot;margin: 0px 0px 0px 4px&quot;&gt;+ g_Y: float&lt;br&gt;&lt;/p&gt;&lt;p style=&quot;margin: 0px 0px 0px 4px&quot;&gt;+ g_Z: float&lt;br&gt;&lt;/p&gt;&lt;hr size=&quot;1&quot;&gt;&lt;p style=&quot;margin: 0px ; margin-left: 4px&quot;&gt;&lt;br&gt;&lt;/p&gt;" style="verticalAlign=top;align=left;overflow=fill;fontSize=12;fontFamily=Helvetica;html=1;" parent="1" vertex="1">
          <mxGeometry x="-1605" y="1003.5" width="160" height="139" as="geometry"/>
        </mxCell>
        <mxCell id="XCtTQCzG72HCAti6Qc9I-17" style="edgeStyle=orthogonalEdgeStyle;rounded=0;orthogonalLoop=1;jettySize=auto;html=1;exitX=0.5;exitY=1;exitDx=0;exitDy=0;" parent="1" source="XCtTQCzG72HCAti6Qc9I-15" target="4jUEhYQWBBL92VZrlt_O-3" edge="1">
          <mxGeometry relative="1" as="geometry"/>
        </mxCell>
        <mxCell id="XCtTQCzG72HCAti6Qc9I-15" value="&lt;p style=&quot;margin: 0px ; margin-top: 4px ; text-align: center&quot;&gt;{Abstract}&lt;br&gt;&lt;b&gt;DataPackager&lt;/b&gt;&lt;/p&gt;&lt;hr size=&quot;1&quot;&gt;&lt;p style=&quot;margin: 0px ; margin-left: 4px&quot;&gt;&lt;br&gt;&lt;/p&gt;&lt;hr size=&quot;1&quot;&gt;&lt;p style=&quot;margin: 0px ; margin-left: 4px&quot;&gt;+ package(byteString: int): DataEntry&lt;/p&gt;" style="verticalAlign=top;align=left;overflow=fill;fontSize=12;fontFamily=Helvetica;html=1;" parent="1" vertex="1">
          <mxGeometry x="-1902.5" y="780" width="245" height="106" as="geometry"/>
        </mxCell>
        <mxCell id="gOupwa7_WCO_5UHda2sZ-3" value="Bekommt Daten von der Bibliothek per Event:&lt;br&gt;Schickt diese in onNewDataAvailable() an alle Aktivities weiter" style="shape=note;whiteSpace=wrap;html=1;size=14;verticalAlign=top;align=left;spacingTop=-6;" parent="1" vertex="1">
          <mxGeometry x="505" y="327" width="170" height="73" as="geometry"/>
        </mxCell>
        <mxCell id="gOupwa7_WCO_5UHda2sZ-7" value="hasService" style="endArrow=open;endSize=12;dashed=1;html=1;" parent="1" source="sXvjfolYUnGrp_yOVfev-64" target="mTHoaqH5w0DHYMugpqkl-6" edge="1">
          <mxGeometry width="160" relative="1" as="geometry">
            <mxPoint x="620" y="280" as="sourcePoint"/>
            <mxPoint x="780" y="280" as="targetPoint"/>
          </mxGeometry>
        </mxCell>
        <mxCell id="gOupwa7_WCO_5UHda2sZ-8" value="hasService" style="endArrow=open;endSize=12;dashed=1;html=1;" parent="1" source="sXvjfolYUnGrp_yOVfev-64" target="sXvjfolYUnGrp_yOVfev-15" edge="1">
          <mxGeometry width="160" relative="1" as="geometry">
            <mxPoint x="826.0556621880996" y="411.5" as="sourcePoint"/>
            <mxPoint x="710" y="629" as="targetPoint"/>
          </mxGeometry>
        </mxCell>
        <mxCell id="1QQ3cwLplbujhVV3ZzxS-32" value="DataEventArgs" style="swimlane;fontStyle=1;align=center;verticalAlign=top;childLayout=stackLayout;horizontal=1;startSize=26;horizontalStack=0;resizeParent=1;resizeParentMax=0;resizeLast=0;collapsible=1;marginBottom=0;" parent="1" vertex="1">
          <mxGeometry x="-1340" y="826" width="350" height="112" as="geometry"/>
        </mxCell>
        <mxCell id="1QQ3cwLplbujhVV3ZzxS-33" value="+ data: DataEntry" style="text;strokeColor=none;fillColor=none;align=left;verticalAlign=top;spacingLeft=4;spacingRight=4;overflow=hidden;rotatable=0;points=[[0,0.5],[1,0.5]];portConstraint=eastwest;" parent="1QQ3cwLplbujhVV3ZzxS-32" vertex="1">
          <mxGeometry y="26" width="350" height="26" as="geometry"/>
        </mxCell>
        <mxCell id="1QQ3cwLplbujhVV3ZzxS-34" value="" style="line;strokeWidth=1;fillColor=none;align=left;verticalAlign=middle;spacingTop=-1;spacingLeft=3;spacingRight=3;rotatable=0;labelPosition=right;points=[];portConstraint=eastwest;" parent="1QQ3cwLplbujhVV3ZzxS-32" vertex="1">
          <mxGeometry y="52" width="350" height="8" as="geometry"/>
        </mxCell>
        <mxCell id="1QQ3cwLplbujhVV3ZzxS-35" value="+ DataEventArgs (data : DataEntry, configs : ConfigContainer)" style="text;strokeColor=none;fillColor=none;align=left;verticalAlign=top;spacingLeft=4;spacingRight=4;overflow=hidden;rotatable=0;points=[[0,0.5],[1,0.5]];portConstraint=eastwest;" parent="1QQ3cwLplbujhVV3ZzxS-32" vertex="1">
          <mxGeometry y="60" width="350" height="26" as="geometry"/>
        </mxCell>
        <mxCell id="1QQ3cwLplbujhVV3ZzxS-36" value="+ configs : ConfigContainer" style="text;strokeColor=none;fillColor=none;align=left;verticalAlign=top;spacingLeft=4;spacingRight=4;overflow=hidden;rotatable=0;points=[[0,0.5],[1,0.5]];portConstraint=eastwest;" parent="1QQ3cwLplbujhVV3ZzxS-32" vertex="1">
          <mxGeometry y="86" width="350" height="26" as="geometry"/>
        </mxCell>
        <mxCell id="1QQ3cwLplbujhVV3ZzxS-1" value="ActivityManager" style="swimlane;fontStyle=1;align=center;verticalAlign=top;childLayout=stackLayout;horizontal=1;startSize=28;horizontalStack=0;resizeParent=1;resizeParentMax=0;resizeLast=0;collapsible=1;marginBottom=0;" parent="1" vertex="1">
          <mxGeometry x="47" y="349.5" width="408" height="114" as="geometry">
            <mxRectangle width="140" height="28" as="alternateBounds"/>
          </mxGeometry>
        </mxCell>
        <mxCell id="n2-QzeIZX0uXDNsSAh_k-1" value="+ ActivityProvider : ServiceProvider" style="text;strokeColor=none;fillColor=none;align=left;verticalAlign=top;spacingLeft=4;spacingRight=4;overflow=hidden;rotatable=0;points=[[0,0.5],[1,0.5]];portConstraint=eastwest;" parent="1QQ3cwLplbujhVV3ZzxS-1" vertex="1">
          <mxGeometry y="28" width="408" height="26" as="geometry"/>
        </mxCell>
        <mxCell id="1QQ3cwLplbujhVV3ZzxS-3" value="" style="line;strokeWidth=1;fillColor=none;align=left;verticalAlign=middle;spacingTop=-1;spacingLeft=3;spacingRight=3;rotatable=0;labelPosition=right;points=[];portConstraint=eastwest;" parent="1QQ3cwLplbujhVV3ZzxS-1" vertex="1">
          <mxGeometry y="54" width="408" height="8" as="geometry"/>
        </mxCell>
        <mxCell id="1QQ3cwLplbujhVV3ZzxS-4" value="+ &lt;&lt;create&gt;&gt; ActivityManager()" style="text;strokeColor=none;fillColor=none;align=left;verticalAlign=top;spacingLeft=4;spacingRight=4;overflow=hidden;rotatable=0;points=[[0,0.5],[1,0.5]];portConstraint=eastwest;" parent="1QQ3cwLplbujhVV3ZzxS-1" vertex="1">
          <mxGeometry y="62" width="408" height="26" as="geometry"/>
        </mxCell>
        <mxCell id="gOupwa7_WCO_5UHda2sZ-4" value="+ onIMUDataRecieved(sender : object, args : DataEventArgs)" style="text;strokeColor=none;fillColor=none;align=left;verticalAlign=top;spacingLeft=4;spacingRight=4;overflow=hidden;rotatable=0;points=[[0,0.5],[1,0.5]];portConstraint=eastwest;" parent="1QQ3cwLplbujhVV3ZzxS-1" vertex="1">
          <mxGeometry y="88" width="408" height="26" as="geometry"/>
        </mxCell>
        <mxCell id="gOupwa7_WCO_5UHda2sZ-13" value="&lt;font style=&quot;font-size: 14px&quot;&gt;Erweiterungsmodul&lt;/font&gt;" style="text;html=1;align=center;verticalAlign=middle;resizable=0;points=[];;autosize=1;" parent="1" vertex="1">
          <mxGeometry x="-190" y="6" width="140" height="20" as="geometry"/>
        </mxCell>
        <mxCell id="4xYlC9JivESuF4BA-wcZ-3" value="&lt;p style=&quot;margin: 0px ; margin-top: 4px ; text-align: center&quot;&gt;&lt;b&gt;&amp;lt;&amp;lt;enumeration&amp;gt;&amp;gt;&lt;/b&gt;&lt;/p&gt;&lt;p style=&quot;margin: 0px ; margin-top: 4px ; text-align: center&quot;&gt;&lt;b&gt;LPF_Gyroskope&lt;/b&gt;&lt;/p&gt;&lt;hr size=&quot;1&quot;&gt;&lt;p style=&quot;margin: 0px ; margin-left: 4px&quot;&gt;+ method(): Type&lt;/p&gt;&lt;p style=&quot;margin: 0px ; margin-left: 4px&quot;&gt;&lt;br&gt;&lt;/p&gt;" style="verticalAlign=top;align=left;overflow=fill;fontSize=12;fontFamily=Helvetica;html=1;" parent="1" vertex="1">
          <mxGeometry x="-1700" y="59" width="160" height="90" as="geometry"/>
        </mxCell>
        <mxCell id="4xYlC9JivESuF4BA-wcZ-7" value="Note" style="shape=note;whiteSpace=wrap;html=1;size=14;verticalAlign=top;align=left;spacingTop=-6;" parent="1" vertex="1">
          <mxGeometry x="-115" y="756" width="100" height="70" as="geometry"/>
        </mxCell>
        <mxCell id="lx2fqZ4H967W4USDWjPS-2" value="hasService" style="endArrow=open;endSize=12;dashed=1;html=1;entryX=0;entryY=0.25;entryDx=0;entryDy=0;exitX=1.006;exitY=-0.102;exitDx=0;exitDy=0;exitPerimeter=0;" edge="1" parent="1" source="sXvjfolYUnGrp_yOVfev-65" target="1QQ3cwLplbujhVV3ZzxS-1">
          <mxGeometry width="160" relative="1" as="geometry">
            <mxPoint x="-519.5293478260869" y="445.5" as="sourcePoint"/>
            <mxPoint x="-389.10815217391337" y="808" as="targetPoint"/>
          </mxGeometry>
        </mxCell>
      </root>
    </mxGraphModel>
  </diagram>
</mxfile>
